<svg xmlns="http://www.w3.org/2000/svg" width="24" height="24" viewBox="0 0 24 24" fill="none" stroke="#3b82f6" stroke-width="2" stroke-linecap="round" stroke-linejoin="round">
  <path d="M17.5 19c0-3.037-2.463-5.5-5.5-5.5S6.5 15.963 6.5 19 8.963 24.5 12 24.5s5.5-2.463 5.5-5.5z" style="display:none"/>
  <path d="M17.5 19c0-3.037-2.463-5.5-5.5-5.5S6.5 15.963 6.5 19"/>
  <path d="M20.6 16c.8-1.1 1.4-2.5 1.4-4 0-3.3-2.7-6-6-6-2.6 0-4.8 1.7-5.6 4.1C9.6 9.4 8.6 9 7.5 9 4.5 9 2 11.5 2 14.5c0 2.6 1.8 4.8 4.3 5.3"/>
  <path d="M17.5 19H6.5" stroke="transparent"/>
  <path d="M17.5 19c0-3.037-2.463-5.5-5.5-5.5S6.5 15.963 6.5 19" fill="#eff6ff"/>
  <path d="M17.5 19H6.5"/>
  <path d="M20.6 16c.8-1.1 1.4-2.5 1.4-4 0-3.3-2.7-6-6-6-2.6 0-4.8 1.7-5.6 4.1C9.6 9.4 8.6 9 7.5 9 4.5 9 2 11.5 2 14.5c0 2.6 1.8 4.8 4.3 5.3" fill="#eff6ff"/>
</svg>
